<svg width="1400" height="1234" viewBox="0 0 1400 1234" fill="none" xmlns="http://www.w3.org/2000/svg">
<path d="M747 40.0135C769.091 1.75011 818.019 -11.3601 856.282 10.7313C894.545 32.8227 907.656 81.7502 885.564 120.014L792.158 281.797L1087.15 792.731H1320C1364.18 792.731 1400 828.549 1400 872.731C1400 916.914 1364.18 952.731 1320 952.731H1179.52L1272.56 1113.88C1294.66 1152.15 1281.55 1201.08 1243.28 1223.17C1205.02 1245.26 1156.09 1232.15 1134 1193.88L994.77 952.731H404.795L265.564 1193.88C243.473 1232.15 194.546 1245.26 156.282 1223.17C118.019 1201.08 104.909 1152.15 127 1113.88L220.042 952.731H80C35.8173 952.731 6.59807e-05 916.914 0 872.731C0 828.549 35.8172 792.731 80 792.731H312.418L607.405 281.797L514 120.014C491.909 81.7501 505.019 32.8227 543.282 10.7313C581.546 -11.36 630.473 1.75013 652.564 40.0135L699.781 121.797L747 40.0135ZM497.171 792.731H902.394L699.782 441.798L497.171 792.731Z" fill="white"/>
</svg>
