<svg width="2200" height="2800" viewBox="0 0 2200 2800" fill="none" xmlns="http://www.w3.org/2000/svg">
<path d="M145 1592.71H144C158.5 1616.01 673.7 2388.72 936 2721.12C1019 2826.13 1181.8 2826.32 1265 2721.52C1533.2 2384.22 2045 1610.61 2056.1 1592.71H2055.1C2149.88 1433.15 2199.94 1251 2200 1065.41C2200 477.004 1707.6 0 1100 0C492.5 0 0 477.004 0 1065.41C0 1257.41 53.2 1437.11 145 1592.71Z" fill="#1296DB"/>
<path d="M145 1592.71H144C158.5 1616.01 673.7 2388.72 936 2721.12C1019 2826.13 1181.8 2826.32 1265 2721.52C1533.2 2384.22 2045 1610.61 2056.1 1592.71H2055.1C2149.88 1433.15 2199.94 1251 2200 1065.41C2200 477.004 1707.6 0 1100 0C492.5 0 0 477.004 0 1065.41C0 1257.41 53.2 1437.11 145 1592.71Z" fill="url(#paint0_linear_4_178)"/>
<defs>
<linearGradient id="paint0_linear_4_178" x1="1100" y1="2800" x2="1100" y2="0" gradientUnits="userSpaceOnUse">
<stop stop-color="#3364E7"/>
<stop offset="1" stop-color="#56B1F4"/>
</linearGradient>
</defs>
</svg>
